<svg width="1200" height="600" xmlns="http://www.w3.org/2000/svg">
  <defs>
    <pattern id="grid" width="80" height="80" patternUnits="userSpaceOnUse">
      <circle cx="40" cy="40" r="2" fill="#ffffff" opacity="0.2" />
    </pattern>
    <linearGradient id="grad" x1="0%" y1="0%" x2="100%" y2="100%">
      <stop offset="0%" style="stop-color:#4568dc;stop-opacity:1" />
      <stop offset="100%" style="stop-color:#3f51b5;stop-opacity:1" />
    </linearGradient>
  </defs>
  
  <rect width="1200" height="600" fill="url(#grad)" />
  <rect width="1200" height="600" fill="url(#grid)" />
  
  <!-- Decorative elements -->
  <circle cx="100" cy="100" r="50" fill="white" opacity="0.05" />
  <circle cx="900" cy="400" r="80" fill="white" opacity="0.05" />
  <circle cx="300" cy="500" r="60" fill="white" opacity="0.05" />
  <circle cx="1100" cy="200" r="40" fill="white" opacity="0.05" />
  
  <!-- Floating abstract shapes -->
  <path d="M600,100 L650,150 L600,200 L550,150 Z" fill="white" opacity="0.1" />
  <path d="M200,300 L250,250 L300,300 L250,350 Z" fill="white" opacity="0.1" />
  <path d="M800,450 L850,500 L800,550 L750,500 Z" fill="white" opacity="0.1" />
  
  <!-- Abstract lines -->
  <line x1="0" y1="300" x2="400" y2="300" stroke="white" stroke-width="1" opacity="0.1" />
  <line x1="800" y1="300" x2="1200" y2="300" stroke="white" stroke-width="1" opacity="0.1" />
  <line x1="600" y1="0" x2="600" y2="250" stroke="white" stroke-width="1" opacity="0.1" />
  <line x1="600" y1="350" x2="600" y2="600" stroke="white" stroke-width="1" opacity="0.1" />
</svg> 